<?xml version="1.0" encoding="utf-8"?>
<!-- Generator: Adobe Illustrator 19.0.0, SVG Export Plug-In . SVG Version: 6.00 Build 0)  -->
<svg version="1.0" id="Layer_2" xmlns="http://www.w3.org/2000/svg" xmlns:xlink="http://www.w3.org/1999/xlink" x="0px" y="0px"
	 viewBox="0 0 24 24" enable-background="new 0 0 24 24" xml:space="preserve">
<g id="XMLID_6_">
	<defs>
		<path id="XMLID_7_" d="M12,5.2c-2.5,0-4.5,2-4.5,4.4h2.2c0-1.2,1-2.2,2.2-2.2s2.2,1,2.2,2.2c0,2.2-3.2,1.8-3.2,5.4h2.2
			c0-2.5,3.2-2.6,3.2-5.4C16.5,7.2,14.5,5.2,12,5.2z M12,22C6.5,22,2,17.5,2,12S6.5,2,12,2s10,4.5,10,10S17.5,22,12,22z M12,0
			C5.4,0,0,5.4,0,12s5.4,12,12,12s12-5.4,12-12S18.6,0,12,0z M11,19h2v-2h-2V19z"/>
	</defs>
	<use xlink:href="#XMLID_7_"  overflow="visible"/>
	<clipPath id="XMLID_8_">
		<use xlink:href="#XMLID_7_"  overflow="visible"/>
	</clipPath>
</g>
</svg>
