<?xml version="1.0" encoding="utf-8"?>
<!-- Generator: Adobe Illustrator 23.0.1, SVG Export Plug-In . SVG Version: 6.00 Build 0)  -->
<svg version="1.0" id="Layer_1" xmlns="http://www.w3.org/2000/svg" xmlns:xlink="http://www.w3.org/1999/xlink" x="0px" y="0px"
	 viewBox="0 0 30 30" enable-background="new 0 0 30 30" xml:space="preserve">
<g>
	<path d="M21.5,27.8c-0.4,0-1-0.1-1.6-0.4L10,21.7H5.8c-3,0-5.8-2.7-5.8-5.6V7.6c0-3,2.4-5.4,5.4-5.4h19.3c3,0,5.4,2.4,5.4,5.4v8.4
		c0,3-2.4,5.4-5.4,5.4L23,21.6v4.8c0,0.2,0,0.7-0.6,1.1C22.2,27.7,21.9,27.8,21.5,27.8z M5.4,3.2C3,3.2,1,5.2,1,7.6v8.4
		c0,2.4,2.3,4.6,4.8,4.6h4.5l10.1,5.8c1,0.4,1.4,0.2,1.5,0.2c0.1-0.1,0.1-0.2,0.1-0.3v-5.7l2.6-0.2c2.4,0,4.4-2,4.4-4.4V7.6
		c0-2.4-2-4.4-4.4-4.4H5.4z"/>
</g>
<rect x="6" y="9" width="18" height="1"/>
<rect x="6" y="14" width="18" height="1"/>
</svg>
